<svg xmlns="http://www.w3.org/2000/svg" width="25" height="27" viewBox="0 0 40 44" fill="none">
<path d="M18.5503 30.3638L27.3242 21.5899L18.5503 12.816" stroke="white" stroke-width="2" stroke-linecap="round" stroke-linejoin="round"/>
<path d="M27.3262 21.5872H1.00041" stroke="white" stroke-width="2" stroke-linecap="round" stroke-linejoin="round"/>
<path d="M3.92188 14.2784V6.9425C3.92188 3.7206 6.52696 1.10516 9.74884 1.09238L33.01 1.00011C36.2409 0.987285 38.8705 3.59609 38.8833 6.82702M38.8833 6.82702C38.8833 6.82702 38.8833 6.82702 38.8833 6.82702ZM38.8833 6.82702L38.9996 36.1632C39.0124 39.3942 36.4036 42.0237 33.1727 42.0366C33.1649 42.0366 33.1572 42.0366 33.1495 42.0366H9.77205C6.54109 42.0366 3.92188 39.4174 3.92188 36.1864V28.9038" stroke="white" stroke-width="2" stroke-linecap="round" stroke-linejoin="round"/>
</svg>